<mxfile host="app.diagrams.net" agent="Mozilla/5.0 (Windows NT 10.0; Win64; x64) AppleWebKit/537.36 (KHTML, like Gecko) Chrome/129.0.0.0 Safari/537.36 Edg/129.0.0.0" version="24.7.16">
  <diagram id="R2lEEEUBdFMjLlhIrx00" name="Page-1">
    <mxGraphModel grid="1" page="1" gridSize="10" guides="1" tooltips="1" connect="1" arrows="1" fold="1" pageScale="1" pageWidth="850" pageHeight="1100" math="0" shadow="0" extFonts="Permanent Marker^https://fonts.googleapis.com/css?family=Permanent+Marker">
      <root>
        <mxCell id="0" />
        <mxCell id="1" parent="0" />
        <mxCell id="C-vyLk0tnHw3VtMMgP7b-2" value="Category" style="shape=table;startSize=30;container=1;collapsible=1;childLayout=tableLayout;fixedRows=1;rowLines=0;fontStyle=1;align=center;resizeLast=1;" vertex="1" parent="1">
          <mxGeometry x="-530" y="380" width="250" height="80" as="geometry" />
        </mxCell>
        <mxCell id="C-vyLk0tnHw3VtMMgP7b-3" value="" style="shape=partialRectangle;collapsible=0;dropTarget=0;pointerEvents=0;fillColor=none;points=[[0,0.5],[1,0.5]];portConstraint=eastwest;top=0;left=0;right=0;bottom=1;" vertex="1" parent="C-vyLk0tnHw3VtMMgP7b-2">
          <mxGeometry y="30" width="250" height="30" as="geometry" />
        </mxCell>
        <mxCell id="C-vyLk0tnHw3VtMMgP7b-4" value="PK" style="shape=partialRectangle;overflow=hidden;connectable=0;fillColor=none;top=0;left=0;bottom=0;right=0;fontStyle=1;" vertex="1" parent="C-vyLk0tnHw3VtMMgP7b-3">
          <mxGeometry width="30" height="30" as="geometry">
            <mxRectangle width="30" height="30" as="alternateBounds" />
          </mxGeometry>
        </mxCell>
        <mxCell id="C-vyLk0tnHw3VtMMgP7b-5" value="category_id int NOT NULL " style="shape=partialRectangle;overflow=hidden;connectable=0;fillColor=none;top=0;left=0;bottom=0;right=0;align=left;spacingLeft=6;fontStyle=5;" vertex="1" parent="C-vyLk0tnHw3VtMMgP7b-3">
          <mxGeometry x="30" width="220" height="30" as="geometry">
            <mxRectangle width="220" height="30" as="alternateBounds" />
          </mxGeometry>
        </mxCell>
        <mxCell id="C-vyLk0tnHw3VtMMgP7b-6" value="" style="shape=partialRectangle;collapsible=0;dropTarget=0;pointerEvents=0;fillColor=none;points=[[0,0.5],[1,0.5]];portConstraint=eastwest;top=0;left=0;right=0;bottom=0;" vertex="1" parent="C-vyLk0tnHw3VtMMgP7b-2">
          <mxGeometry y="60" width="250" height="20" as="geometry" />
        </mxCell>
        <mxCell id="C-vyLk0tnHw3VtMMgP7b-7" value="" style="shape=partialRectangle;overflow=hidden;connectable=0;fillColor=none;top=0;left=0;bottom=0;right=0;" vertex="1" parent="C-vyLk0tnHw3VtMMgP7b-6">
          <mxGeometry width="30" height="20" as="geometry">
            <mxRectangle width="30" height="20" as="alternateBounds" />
          </mxGeometry>
        </mxCell>
        <mxCell id="C-vyLk0tnHw3VtMMgP7b-8" value="category_name varchar(100) NOT NULL " style="shape=partialRectangle;overflow=hidden;connectable=0;fillColor=none;top=0;left=0;bottom=0;right=0;align=left;spacingLeft=6;" vertex="1" parent="C-vyLk0tnHw3VtMMgP7b-6">
          <mxGeometry x="30" width="220" height="20" as="geometry">
            <mxRectangle width="220" height="20" as="alternateBounds" />
          </mxGeometry>
        </mxCell>
        <mxCell id="C-vyLk0tnHw3VtMMgP7b-23" value="Product" style="shape=table;startSize=30;container=1;collapsible=1;childLayout=tableLayout;fixedRows=1;rowLines=0;fontStyle=1;align=center;resizeLast=1;" vertex="1" parent="1">
          <mxGeometry x="-220" y="390" width="250" height="260" as="geometry" />
        </mxCell>
        <mxCell id="C-vyLk0tnHw3VtMMgP7b-24" value="" style="shape=partialRectangle;collapsible=0;dropTarget=0;pointerEvents=0;fillColor=none;points=[[0,0.5],[1,0.5]];portConstraint=eastwest;top=0;left=0;right=0;bottom=1;" vertex="1" parent="C-vyLk0tnHw3VtMMgP7b-23">
          <mxGeometry y="30" width="250" height="30" as="geometry" />
        </mxCell>
        <mxCell id="C-vyLk0tnHw3VtMMgP7b-25" value="PK" style="shape=partialRectangle;overflow=hidden;connectable=0;fillColor=none;top=0;left=0;bottom=0;right=0;fontStyle=1;" vertex="1" parent="C-vyLk0tnHw3VtMMgP7b-24">
          <mxGeometry width="30" height="30" as="geometry">
            <mxRectangle width="30" height="30" as="alternateBounds" />
          </mxGeometry>
        </mxCell>
        <mxCell id="C-vyLk0tnHw3VtMMgP7b-26" value="product_id int NOT NULL " style="shape=partialRectangle;overflow=hidden;connectable=0;fillColor=none;top=0;left=0;bottom=0;right=0;align=left;spacingLeft=6;fontStyle=5;" vertex="1" parent="C-vyLk0tnHw3VtMMgP7b-24">
          <mxGeometry x="30" width="220" height="30" as="geometry">
            <mxRectangle width="220" height="30" as="alternateBounds" />
          </mxGeometry>
        </mxCell>
        <mxCell id="C-vyLk0tnHw3VtMMgP7b-27" value="" style="shape=partialRectangle;collapsible=0;dropTarget=0;pointerEvents=0;fillColor=none;points=[[0,0.5],[1,0.5]];portConstraint=eastwest;top=0;left=0;right=0;bottom=0;" vertex="1" parent="C-vyLk0tnHw3VtMMgP7b-23">
          <mxGeometry y="60" width="250" height="30" as="geometry" />
        </mxCell>
        <mxCell id="C-vyLk0tnHw3VtMMgP7b-28" value="" style="shape=partialRectangle;overflow=hidden;connectable=0;fillColor=none;top=0;left=0;bottom=0;right=0;" vertex="1" parent="C-vyLk0tnHw3VtMMgP7b-27">
          <mxGeometry width="30" height="30" as="geometry">
            <mxRectangle width="30" height="30" as="alternateBounds" />
          </mxGeometry>
        </mxCell>
        <mxCell id="C-vyLk0tnHw3VtMMgP7b-29" value="product_name varchar(100) NOT NULL" style="shape=partialRectangle;overflow=hidden;connectable=0;fillColor=none;top=0;left=0;bottom=0;right=0;align=left;spacingLeft=6;" vertex="1" parent="C-vyLk0tnHw3VtMMgP7b-27">
          <mxGeometry x="30" width="220" height="30" as="geometry">
            <mxRectangle width="220" height="30" as="alternateBounds" />
          </mxGeometry>
        </mxCell>
        <mxCell id="WxYsgp-KZV7bpgHmbpId-1" value="" style="shape=partialRectangle;collapsible=0;dropTarget=0;pointerEvents=0;fillColor=none;points=[[0,0.5],[1,0.5]];portConstraint=eastwest;top=0;left=0;right=0;bottom=0;" vertex="1" parent="C-vyLk0tnHw3VtMMgP7b-23">
          <mxGeometry y="90" width="250" height="30" as="geometry" />
        </mxCell>
        <mxCell id="WxYsgp-KZV7bpgHmbpId-2" value="" style="shape=partialRectangle;overflow=hidden;connectable=0;fillColor=none;top=0;left=0;bottom=0;right=0;" vertex="1" parent="WxYsgp-KZV7bpgHmbpId-1">
          <mxGeometry width="30" height="30" as="geometry">
            <mxRectangle width="30" height="30" as="alternateBounds" />
          </mxGeometry>
        </mxCell>
        <mxCell id="WxYsgp-KZV7bpgHmbpId-3" value="product_originalPrice double NOT NULL" style="shape=partialRectangle;overflow=hidden;connectable=0;fillColor=none;top=0;left=0;bottom=0;right=0;align=left;spacingLeft=6;" vertex="1" parent="WxYsgp-KZV7bpgHmbpId-1">
          <mxGeometry x="30" width="220" height="30" as="geometry">
            <mxRectangle width="220" height="30" as="alternateBounds" />
          </mxGeometry>
        </mxCell>
        <mxCell id="WxYsgp-KZV7bpgHmbpId-4" value="" style="shape=partialRectangle;collapsible=0;dropTarget=0;pointerEvents=0;fillColor=none;points=[[0,0.5],[1,0.5]];portConstraint=eastwest;top=0;left=0;right=0;bottom=0;" vertex="1" parent="C-vyLk0tnHw3VtMMgP7b-23">
          <mxGeometry y="120" width="250" height="30" as="geometry" />
        </mxCell>
        <mxCell id="WxYsgp-KZV7bpgHmbpId-5" value="" style="shape=partialRectangle;overflow=hidden;connectable=0;fillColor=none;top=0;left=0;bottom=0;right=0;" vertex="1" parent="WxYsgp-KZV7bpgHmbpId-4">
          <mxGeometry width="30" height="30" as="geometry">
            <mxRectangle width="30" height="30" as="alternateBounds" />
          </mxGeometry>
        </mxCell>
        <mxCell id="WxYsgp-KZV7bpgHmbpId-6" value="product_imgUrl varchar(100) NOT NULL" style="shape=partialRectangle;overflow=hidden;connectable=0;fillColor=none;top=0;left=0;bottom=0;right=0;align=left;spacingLeft=6;" vertex="1" parent="WxYsgp-KZV7bpgHmbpId-4">
          <mxGeometry x="30" width="220" height="30" as="geometry">
            <mxRectangle width="220" height="30" as="alternateBounds" />
          </mxGeometry>
        </mxCell>
        <mxCell id="WxYsgp-KZV7bpgHmbpId-7" value="" style="shape=partialRectangle;collapsible=0;dropTarget=0;pointerEvents=0;fillColor=none;points=[[0,0.5],[1,0.5]];portConstraint=eastwest;top=0;left=0;right=0;bottom=0;" vertex="1" parent="C-vyLk0tnHw3VtMMgP7b-23">
          <mxGeometry y="150" width="250" height="30" as="geometry" />
        </mxCell>
        <mxCell id="WxYsgp-KZV7bpgHmbpId-8" value="" style="shape=partialRectangle;overflow=hidden;connectable=0;fillColor=none;top=0;left=0;bottom=0;right=0;" vertex="1" parent="WxYsgp-KZV7bpgHmbpId-7">
          <mxGeometry width="30" height="30" as="geometry">
            <mxRectangle width="30" height="30" as="alternateBounds" />
          </mxGeometry>
        </mxCell>
        <mxCell id="WxYsgp-KZV7bpgHmbpId-9" value="product_rating Double" style="shape=partialRectangle;overflow=hidden;connectable=0;fillColor=none;top=0;left=0;bottom=0;right=0;align=left;spacingLeft=6;" vertex="1" parent="WxYsgp-KZV7bpgHmbpId-7">
          <mxGeometry x="30" width="220" height="30" as="geometry">
            <mxRectangle width="220" height="30" as="alternateBounds" />
          </mxGeometry>
        </mxCell>
        <mxCell id="WxYsgp-KZV7bpgHmbpId-10" value="" style="shape=partialRectangle;collapsible=0;dropTarget=0;pointerEvents=0;fillColor=none;points=[[0,0.5],[1,0.5]];portConstraint=eastwest;top=0;left=0;right=0;bottom=0;" vertex="1" parent="C-vyLk0tnHw3VtMMgP7b-23">
          <mxGeometry y="180" width="250" height="30" as="geometry" />
        </mxCell>
        <mxCell id="WxYsgp-KZV7bpgHmbpId-11" value="FK" style="shape=partialRectangle;overflow=hidden;connectable=0;fillColor=none;top=0;left=0;bottom=0;right=0;" vertex="1" parent="WxYsgp-KZV7bpgHmbpId-10">
          <mxGeometry width="30" height="30" as="geometry">
            <mxRectangle width="30" height="30" as="alternateBounds" />
          </mxGeometry>
        </mxCell>
        <mxCell id="WxYsgp-KZV7bpgHmbpId-12" value="category_id int NOT NULL" style="shape=partialRectangle;overflow=hidden;connectable=0;fillColor=none;top=0;left=0;bottom=0;right=0;align=left;spacingLeft=6;" vertex="1" parent="WxYsgp-KZV7bpgHmbpId-10">
          <mxGeometry x="30" width="220" height="30" as="geometry">
            <mxRectangle width="220" height="30" as="alternateBounds" />
          </mxGeometry>
        </mxCell>
        <mxCell id="WxYsgp-KZV7bpgHmbpId-228" value="" style="shape=partialRectangle;collapsible=0;dropTarget=0;pointerEvents=0;fillColor=none;points=[[0,0.5],[1,0.5]];portConstraint=eastwest;top=0;left=0;right=0;bottom=0;" vertex="1" parent="C-vyLk0tnHw3VtMMgP7b-23">
          <mxGeometry y="210" width="250" height="30" as="geometry" />
        </mxCell>
        <mxCell id="WxYsgp-KZV7bpgHmbpId-229" value="FK" style="shape=partialRectangle;overflow=hidden;connectable=0;fillColor=none;top=0;left=0;bottom=0;right=0;" vertex="1" parent="WxYsgp-KZV7bpgHmbpId-228">
          <mxGeometry width="30" height="30" as="geometry">
            <mxRectangle width="30" height="30" as="alternateBounds" />
          </mxGeometry>
        </mxCell>
        <mxCell id="WxYsgp-KZV7bpgHmbpId-230" value="discount_id int NOT NULL" style="shape=partialRectangle;overflow=hidden;connectable=0;fillColor=none;top=0;left=0;bottom=0;right=0;align=left;spacingLeft=6;" vertex="1" parent="WxYsgp-KZV7bpgHmbpId-228">
          <mxGeometry x="30" width="220" height="30" as="geometry">
            <mxRectangle width="220" height="30" as="alternateBounds" />
          </mxGeometry>
        </mxCell>
        <mxCell id="WxYsgp-KZV7bpgHmbpId-107" value="" style="shape=partialRectangle;collapsible=0;dropTarget=0;pointerEvents=0;fillColor=none;points=[[0,0.5],[1,0.5]];portConstraint=eastwest;top=0;left=0;right=0;bottom=0;" vertex="1" parent="C-vyLk0tnHw3VtMMgP7b-23">
          <mxGeometry y="240" width="250" height="20" as="geometry" />
        </mxCell>
        <mxCell id="WxYsgp-KZV7bpgHmbpId-108" value="" style="shape=partialRectangle;overflow=hidden;connectable=0;fillColor=none;top=0;left=0;bottom=0;right=0;" vertex="1" parent="WxYsgp-KZV7bpgHmbpId-107">
          <mxGeometry width="30" height="20" as="geometry">
            <mxRectangle width="30" height="20" as="alternateBounds" />
          </mxGeometry>
        </mxCell>
        <mxCell id="WxYsgp-KZV7bpgHmbpId-109" value="" style="shape=partialRectangle;overflow=hidden;connectable=0;fillColor=none;top=0;left=0;bottom=0;right=0;align=left;spacingLeft=6;" vertex="1" parent="WxYsgp-KZV7bpgHmbpId-107">
          <mxGeometry x="30" width="220" height="20" as="geometry">
            <mxRectangle width="220" height="20" as="alternateBounds" />
          </mxGeometry>
        </mxCell>
        <mxCell id="WxYsgp-KZV7bpgHmbpId-16" value="" style="edgeStyle=entityRelationEdgeStyle;fontSize=12;html=1;endArrow=ERzeroToMany;startArrow=ERmandOne;rounded=0;exitX=1;exitY=0.5;exitDx=0;exitDy=0;" edge="1" parent="1" source="C-vyLk0tnHw3VtMMgP7b-3" target="WxYsgp-KZV7bpgHmbpId-10">
          <mxGeometry width="100" height="100" relative="1" as="geometry">
            <mxPoint x="485" y="390" as="sourcePoint" />
            <mxPoint x="340" y="340" as="targetPoint" />
          </mxGeometry>
        </mxCell>
        <mxCell id="WxYsgp-KZV7bpgHmbpId-75" style="edgeStyle=orthogonalEdgeStyle;rounded=0;orthogonalLoop=1;jettySize=auto;html=1;exitX=0.5;exitY=0;exitDx=0;exitDy=0;entryX=0.502;entryY=0.091;entryDx=0;entryDy=0;entryPerimeter=0;" edge="1" parent="1">
          <mxGeometry relative="1" as="geometry" />
        </mxCell>
        <mxCell id="WxYsgp-KZV7bpgHmbpId-77" value="ProductDetail" style="shape=table;startSize=30;container=1;collapsible=1;childLayout=tableLayout;fixedRows=1;rowLines=0;fontStyle=1;align=center;resizeLast=1;" vertex="1" parent="1">
          <mxGeometry x="90" y="210" width="350.0000000000002" height="190" as="geometry" />
        </mxCell>
        <mxCell id="WxYsgp-KZV7bpgHmbpId-78" value="" style="shape=partialRectangle;collapsible=0;dropTarget=0;pointerEvents=0;fillColor=none;points=[[0,0.5],[1,0.5]];portConstraint=eastwest;top=0;left=0;right=0;bottom=1;" vertex="1" parent="WxYsgp-KZV7bpgHmbpId-77">
          <mxGeometry y="30" width="350.0000000000002" height="30" as="geometry" />
        </mxCell>
        <mxCell id="WxYsgp-KZV7bpgHmbpId-79" value="PK" style="shape=partialRectangle;overflow=hidden;connectable=0;fillColor=none;top=0;left=0;bottom=0;right=0;fontStyle=1;" vertex="1" parent="WxYsgp-KZV7bpgHmbpId-78">
          <mxGeometry width="30" height="30" as="geometry">
            <mxRectangle width="30" height="30" as="alternateBounds" />
          </mxGeometry>
        </mxCell>
        <mxCell id="WxYsgp-KZV7bpgHmbpId-80" value="detailProduct_id int NOT NULL " style="shape=partialRectangle;overflow=hidden;connectable=0;fillColor=none;top=0;left=0;bottom=0;right=0;align=left;spacingLeft=6;fontStyle=5;" vertex="1" parent="WxYsgp-KZV7bpgHmbpId-78">
          <mxGeometry x="30" width="320.0000000000002" height="30" as="geometry">
            <mxRectangle width="320.0000000000002" height="30" as="alternateBounds" />
          </mxGeometry>
        </mxCell>
        <mxCell id="WxYsgp-KZV7bpgHmbpId-81" value="" style="shape=partialRectangle;collapsible=0;dropTarget=0;pointerEvents=0;fillColor=none;points=[[0,0.5],[1,0.5]];portConstraint=eastwest;top=0;left=0;right=0;bottom=0;" vertex="1" parent="WxYsgp-KZV7bpgHmbpId-77">
          <mxGeometry y="60" width="350.0000000000002" height="40" as="geometry" />
        </mxCell>
        <mxCell id="WxYsgp-KZV7bpgHmbpId-82" value="" style="shape=partialRectangle;overflow=hidden;connectable=0;fillColor=none;top=0;left=0;bottom=0;right=0;" vertex="1" parent="WxYsgp-KZV7bpgHmbpId-81">
          <mxGeometry width="30" height="40" as="geometry">
            <mxRectangle width="30" height="40" as="alternateBounds" />
          </mxGeometry>
        </mxCell>
        <mxCell id="WxYsgp-KZV7bpgHmbpId-83" value="detail_description varchar(100)" style="shape=partialRectangle;overflow=hidden;connectable=0;fillColor=none;top=0;left=0;bottom=0;right=0;align=left;spacingLeft=6;" vertex="1" parent="WxYsgp-KZV7bpgHmbpId-81">
          <mxGeometry x="30" width="320.0000000000002" height="40" as="geometry">
            <mxRectangle width="320.0000000000002" height="40" as="alternateBounds" />
          </mxGeometry>
        </mxCell>
        <mxCell id="WxYsgp-KZV7bpgHmbpId-87" value="" style="shape=partialRectangle;collapsible=0;dropTarget=0;pointerEvents=0;fillColor=none;points=[[0,0.5],[1,0.5]];portConstraint=eastwest;top=0;left=0;right=0;bottom=0;" vertex="1" parent="WxYsgp-KZV7bpgHmbpId-77">
          <mxGeometry y="100" width="350.0000000000002" height="30" as="geometry" />
        </mxCell>
        <mxCell id="WxYsgp-KZV7bpgHmbpId-88" value="" style="shape=partialRectangle;overflow=hidden;connectable=0;fillColor=none;top=0;left=0;bottom=0;right=0;" vertex="1" parent="WxYsgp-KZV7bpgHmbpId-87">
          <mxGeometry width="30" height="30" as="geometry">
            <mxRectangle width="30" height="30" as="alternateBounds" />
          </mxGeometry>
        </mxCell>
        <mxCell id="WxYsgp-KZV7bpgHmbpId-89" value="detail_lookedAt int " style="shape=partialRectangle;overflow=hidden;connectable=0;fillColor=none;top=0;left=0;bottom=0;right=0;align=left;spacingLeft=6;" vertex="1" parent="WxYsgp-KZV7bpgHmbpId-87">
          <mxGeometry x="30" width="320.0000000000002" height="30" as="geometry">
            <mxRectangle width="320.0000000000002" height="30" as="alternateBounds" />
          </mxGeometry>
        </mxCell>
        <mxCell id="WxYsgp-KZV7bpgHmbpId-133" value="" style="shape=partialRectangle;collapsible=0;dropTarget=0;pointerEvents=0;fillColor=none;points=[[0,0.5],[1,0.5]];portConstraint=eastwest;top=0;left=0;right=0;bottom=0;" vertex="1" parent="WxYsgp-KZV7bpgHmbpId-77">
          <mxGeometry y="130" width="350.0000000000002" height="30" as="geometry" />
        </mxCell>
        <mxCell id="WxYsgp-KZV7bpgHmbpId-134" value="" style="shape=partialRectangle;overflow=hidden;connectable=0;fillColor=none;top=0;left=0;bottom=0;right=0;" vertex="1" parent="WxYsgp-KZV7bpgHmbpId-133">
          <mxGeometry width="30" height="30" as="geometry">
            <mxRectangle width="30" height="30" as="alternateBounds" />
          </mxGeometry>
        </mxCell>
        <mxCell id="WxYsgp-KZV7bpgHmbpId-135" value="detail_reviewed int " style="shape=partialRectangle;overflow=hidden;connectable=0;fillColor=none;top=0;left=0;bottom=0;right=0;align=left;spacingLeft=6;" vertex="1" parent="WxYsgp-KZV7bpgHmbpId-133">
          <mxGeometry x="30" width="320.0000000000002" height="30" as="geometry">
            <mxRectangle width="320.0000000000002" height="30" as="alternateBounds" />
          </mxGeometry>
        </mxCell>
        <mxCell id="WxYsgp-KZV7bpgHmbpId-180" value="" style="shape=partialRectangle;collapsible=0;dropTarget=0;pointerEvents=0;fillColor=none;points=[[0,0.5],[1,0.5]];portConstraint=eastwest;top=0;left=0;right=0;bottom=0;" vertex="1" parent="WxYsgp-KZV7bpgHmbpId-77">
          <mxGeometry y="160" width="350.0000000000002" height="30" as="geometry" />
        </mxCell>
        <mxCell id="WxYsgp-KZV7bpgHmbpId-181" value="FK" style="shape=partialRectangle;overflow=hidden;connectable=0;fillColor=none;top=0;left=0;bottom=0;right=0;" vertex="1" parent="WxYsgp-KZV7bpgHmbpId-180">
          <mxGeometry width="30" height="30" as="geometry">
            <mxRectangle width="30" height="30" as="alternateBounds" />
          </mxGeometry>
        </mxCell>
        <mxCell id="WxYsgp-KZV7bpgHmbpId-182" value="product_id int NOT NULL" style="shape=partialRectangle;overflow=hidden;connectable=0;fillColor=none;top=0;left=0;bottom=0;right=0;align=left;spacingLeft=6;" vertex="1" parent="WxYsgp-KZV7bpgHmbpId-180">
          <mxGeometry x="30" width="320.0000000000002" height="30" as="geometry">
            <mxRectangle width="320.0000000000002" height="30" as="alternateBounds" />
          </mxGeometry>
        </mxCell>
        <mxCell id="WxYsgp-KZV7bpgHmbpId-119" value="Image" style="shape=table;startSize=30;container=1;collapsible=1;childLayout=tableLayout;fixedRows=1;rowLines=0;fontStyle=1;align=center;resizeLast=1;" vertex="1" parent="1">
          <mxGeometry x="-280" y="110" width="310" height="120" as="geometry" />
        </mxCell>
        <mxCell id="WxYsgp-KZV7bpgHmbpId-120" value="" style="shape=partialRectangle;collapsible=0;dropTarget=0;pointerEvents=0;fillColor=none;points=[[0,0.5],[1,0.5]];portConstraint=eastwest;top=0;left=0;right=0;bottom=1;" vertex="1" parent="WxYsgp-KZV7bpgHmbpId-119">
          <mxGeometry y="30" width="310" height="40" as="geometry" />
        </mxCell>
        <mxCell id="WxYsgp-KZV7bpgHmbpId-121" value="PK" style="shape=partialRectangle;overflow=hidden;connectable=0;fillColor=none;top=0;left=0;bottom=0;right=0;fontStyle=1;" vertex="1" parent="WxYsgp-KZV7bpgHmbpId-120">
          <mxGeometry width="40.00000000000023" height="40" as="geometry">
            <mxRectangle width="40.00000000000023" height="40" as="alternateBounds" />
          </mxGeometry>
        </mxCell>
        <mxCell id="WxYsgp-KZV7bpgHmbpId-122" value="image_id int NOT NULL " style="shape=partialRectangle;overflow=hidden;connectable=0;fillColor=none;top=0;left=0;bottom=0;right=0;align=left;spacingLeft=6;fontStyle=5;" vertex="1" parent="WxYsgp-KZV7bpgHmbpId-120">
          <mxGeometry x="40.00000000000023" width="269.9999999999998" height="40" as="geometry">
            <mxRectangle width="269.9999999999998" height="40" as="alternateBounds" />
          </mxGeometry>
        </mxCell>
        <mxCell id="WxYsgp-KZV7bpgHmbpId-123" value="" style="shape=partialRectangle;collapsible=0;dropTarget=0;pointerEvents=0;fillColor=none;points=[[0,0.5],[1,0.5]];portConstraint=eastwest;top=0;left=0;right=0;bottom=0;" vertex="1" parent="WxYsgp-KZV7bpgHmbpId-119">
          <mxGeometry y="70" width="310" height="20" as="geometry" />
        </mxCell>
        <mxCell id="WxYsgp-KZV7bpgHmbpId-124" value="" style="shape=partialRectangle;overflow=hidden;connectable=0;fillColor=none;top=0;left=0;bottom=0;right=0;" vertex="1" parent="WxYsgp-KZV7bpgHmbpId-123">
          <mxGeometry width="40.00000000000023" height="20" as="geometry">
            <mxRectangle width="40.00000000000023" height="20" as="alternateBounds" />
          </mxGeometry>
        </mxCell>
        <mxCell id="WxYsgp-KZV7bpgHmbpId-125" value="image_url varchar(100) NOT NULL" style="shape=partialRectangle;overflow=hidden;connectable=0;fillColor=none;top=0;left=0;bottom=0;right=0;align=left;spacingLeft=6;" vertex="1" parent="WxYsgp-KZV7bpgHmbpId-123">
          <mxGeometry x="40.00000000000023" width="269.9999999999998" height="20" as="geometry">
            <mxRectangle width="269.9999999999998" height="20" as="alternateBounds" />
          </mxGeometry>
        </mxCell>
        <mxCell id="WxYsgp-KZV7bpgHmbpId-185" value="" style="shape=partialRectangle;collapsible=0;dropTarget=0;pointerEvents=0;fillColor=none;points=[[0,0.5],[1,0.5]];portConstraint=eastwest;top=0;left=0;right=0;bottom=0;" vertex="1" parent="WxYsgp-KZV7bpgHmbpId-119">
          <mxGeometry y="90" width="310" height="30" as="geometry" />
        </mxCell>
        <mxCell id="WxYsgp-KZV7bpgHmbpId-186" value="FK" style="shape=partialRectangle;overflow=hidden;connectable=0;fillColor=none;top=0;left=0;bottom=0;right=0;" vertex="1" parent="WxYsgp-KZV7bpgHmbpId-185">
          <mxGeometry width="40.00000000000023" height="30" as="geometry">
            <mxRectangle width="40.00000000000023" height="30" as="alternateBounds" />
          </mxGeometry>
        </mxCell>
        <mxCell id="WxYsgp-KZV7bpgHmbpId-187" value="detailProduct_id int NOT NULL" style="shape=partialRectangle;overflow=hidden;connectable=0;fillColor=none;top=0;left=0;bottom=0;right=0;align=left;spacingLeft=6;" vertex="1" parent="WxYsgp-KZV7bpgHmbpId-185">
          <mxGeometry x="40.00000000000023" width="269.9999999999998" height="30" as="geometry">
            <mxRectangle width="269.9999999999998" height="30" as="alternateBounds" />
          </mxGeometry>
        </mxCell>
        <mxCell id="WxYsgp-KZV7bpgHmbpId-143" value="ProductVariant " style="shape=table;startSize=30;container=1;collapsible=1;childLayout=tableLayout;fixedRows=1;rowLines=0;fontStyle=1;align=center;resizeLast=1;" vertex="1" parent="1">
          <mxGeometry x="500" y="132.5" width="270" height="180" as="geometry" />
        </mxCell>
        <mxCell id="WxYsgp-KZV7bpgHmbpId-144" value="" style="shape=partialRectangle;collapsible=0;dropTarget=0;pointerEvents=0;fillColor=none;points=[[0,0.5],[1,0.5]];portConstraint=eastwest;top=0;left=0;right=0;bottom=1;" vertex="1" parent="WxYsgp-KZV7bpgHmbpId-143">
          <mxGeometry y="30" width="270" height="30" as="geometry" />
        </mxCell>
        <mxCell id="WxYsgp-KZV7bpgHmbpId-145" value="PK" style="shape=partialRectangle;overflow=hidden;connectable=0;fillColor=none;top=0;left=0;bottom=0;right=0;fontStyle=1;" vertex="1" parent="WxYsgp-KZV7bpgHmbpId-144">
          <mxGeometry width="30" height="30" as="geometry">
            <mxRectangle width="30" height="30" as="alternateBounds" />
          </mxGeometry>
        </mxCell>
        <mxCell id="WxYsgp-KZV7bpgHmbpId-146" value="productVariant_id int NOT NULL " style="shape=partialRectangle;overflow=hidden;connectable=0;fillColor=none;top=0;left=0;bottom=0;right=0;align=left;spacingLeft=6;fontStyle=0;" vertex="1" parent="WxYsgp-KZV7bpgHmbpId-144">
          <mxGeometry x="30" width="240" height="30" as="geometry">
            <mxRectangle width="240" height="30" as="alternateBounds" />
          </mxGeometry>
        </mxCell>
        <mxCell id="WxYsgp-KZV7bpgHmbpId-147" value="" style="shape=partialRectangle;collapsible=0;dropTarget=0;pointerEvents=0;fillColor=none;points=[[0,0.5],[1,0.5]];portConstraint=eastwest;top=0;left=0;right=0;bottom=0;" vertex="1" parent="WxYsgp-KZV7bpgHmbpId-143">
          <mxGeometry y="60" width="270" height="25" as="geometry" />
        </mxCell>
        <mxCell id="WxYsgp-KZV7bpgHmbpId-148" value="" style="shape=partialRectangle;overflow=hidden;connectable=0;fillColor=none;top=0;left=0;bottom=0;right=0;" vertex="1" parent="WxYsgp-KZV7bpgHmbpId-147">
          <mxGeometry width="30" height="25" as="geometry">
            <mxRectangle width="30" height="25" as="alternateBounds" />
          </mxGeometry>
        </mxCell>
        <mxCell id="WxYsgp-KZV7bpgHmbpId-149" value="productVariant_color varchar(50) NOT NULL" style="shape=partialRectangle;overflow=hidden;connectable=0;fillColor=none;top=0;left=0;bottom=0;right=0;align=left;spacingLeft=6;" vertex="1" parent="WxYsgp-KZV7bpgHmbpId-147">
          <mxGeometry x="30" width="240" height="25" as="geometry">
            <mxRectangle width="240" height="25" as="alternateBounds" />
          </mxGeometry>
        </mxCell>
        <mxCell id="WxYsgp-KZV7bpgHmbpId-156" value="" style="shape=partialRectangle;collapsible=0;dropTarget=0;pointerEvents=0;fillColor=none;points=[[0,0.5],[1,0.5]];portConstraint=eastwest;top=0;left=0;right=0;bottom=0;" vertex="1" parent="WxYsgp-KZV7bpgHmbpId-143">
          <mxGeometry y="85" width="270" height="20" as="geometry" />
        </mxCell>
        <mxCell id="WxYsgp-KZV7bpgHmbpId-157" value="" style="shape=partialRectangle;overflow=hidden;connectable=0;fillColor=none;top=0;left=0;bottom=0;right=0;" vertex="1" parent="WxYsgp-KZV7bpgHmbpId-156">
          <mxGeometry width="30" height="20" as="geometry">
            <mxRectangle width="30" height="20" as="alternateBounds" />
          </mxGeometry>
        </mxCell>
        <mxCell id="WxYsgp-KZV7bpgHmbpId-158" value="productVariant_size varchar(10) NOT NULL" style="shape=partialRectangle;overflow=hidden;connectable=0;fillColor=none;top=0;left=0;bottom=0;right=0;align=left;spacingLeft=6;" vertex="1" parent="WxYsgp-KZV7bpgHmbpId-156">
          <mxGeometry x="30" width="240" height="20" as="geometry">
            <mxRectangle width="240" height="20" as="alternateBounds" />
          </mxGeometry>
        </mxCell>
        <mxCell id="WxYsgp-KZV7bpgHmbpId-159" value="" style="shape=partialRectangle;collapsible=0;dropTarget=0;pointerEvents=0;fillColor=none;points=[[0,0.5],[1,0.5]];portConstraint=eastwest;top=0;left=0;right=0;bottom=0;" vertex="1" parent="WxYsgp-KZV7bpgHmbpId-143">
          <mxGeometry y="105" width="270" height="25" as="geometry" />
        </mxCell>
        <mxCell id="WxYsgp-KZV7bpgHmbpId-160" value="" style="shape=partialRectangle;overflow=hidden;connectable=0;fillColor=none;top=0;left=0;bottom=0;right=0;" vertex="1" parent="WxYsgp-KZV7bpgHmbpId-159">
          <mxGeometry width="30" height="25" as="geometry">
            <mxRectangle width="30" height="25" as="alternateBounds" />
          </mxGeometry>
        </mxCell>
        <mxCell id="WxYsgp-KZV7bpgHmbpId-161" value="productVariant_style varchar(100) NOT NULL" style="shape=partialRectangle;overflow=hidden;connectable=0;fillColor=none;top=0;left=0;bottom=0;right=0;align=left;spacingLeft=6;" vertex="1" parent="WxYsgp-KZV7bpgHmbpId-159">
          <mxGeometry x="30" width="240" height="25" as="geometry">
            <mxRectangle width="240" height="25" as="alternateBounds" />
          </mxGeometry>
        </mxCell>
        <mxCell id="ko1RyM3w9HdfvKqxLDfM-1" value="" style="shape=partialRectangle;collapsible=0;dropTarget=0;pointerEvents=0;fillColor=none;points=[[0,0.5],[1,0.5]];portConstraint=eastwest;top=0;left=0;right=0;bottom=0;" vertex="1" parent="WxYsgp-KZV7bpgHmbpId-143">
          <mxGeometry y="130" width="270" height="25" as="geometry" />
        </mxCell>
        <mxCell id="ko1RyM3w9HdfvKqxLDfM-2" value="" style="shape=partialRectangle;overflow=hidden;connectable=0;fillColor=none;top=0;left=0;bottom=0;right=0;" vertex="1" parent="ko1RyM3w9HdfvKqxLDfM-1">
          <mxGeometry width="30" height="25" as="geometry">
            <mxRectangle width="30" height="25" as="alternateBounds" />
          </mxGeometry>
        </mxCell>
        <mxCell id="ko1RyM3w9HdfvKqxLDfM-3" value="productVariant_quantity int NOT NULL" style="shape=partialRectangle;overflow=hidden;connectable=0;fillColor=none;top=0;left=0;bottom=0;right=0;align=left;spacingLeft=6;" vertex="1" parent="ko1RyM3w9HdfvKqxLDfM-1">
          <mxGeometry x="30" width="240" height="25" as="geometry">
            <mxRectangle width="240" height="25" as="alternateBounds" />
          </mxGeometry>
        </mxCell>
        <mxCell id="WxYsgp-KZV7bpgHmbpId-172" value="" style="shape=partialRectangle;collapsible=0;dropTarget=0;pointerEvents=0;fillColor=none;points=[[0,0.5],[1,0.5]];portConstraint=eastwest;top=0;left=0;right=0;bottom=0;" vertex="1" parent="WxYsgp-KZV7bpgHmbpId-143">
          <mxGeometry y="155" width="270" height="25" as="geometry" />
        </mxCell>
        <mxCell id="WxYsgp-KZV7bpgHmbpId-173" value="FK" style="shape=partialRectangle;overflow=hidden;connectable=0;fillColor=none;top=0;left=0;bottom=0;right=0;" vertex="1" parent="WxYsgp-KZV7bpgHmbpId-172">
          <mxGeometry width="30" height="25" as="geometry">
            <mxRectangle width="30" height="25" as="alternateBounds" />
          </mxGeometry>
        </mxCell>
        <mxCell id="WxYsgp-KZV7bpgHmbpId-174" value="detailProduct_id int NOT NULL" style="shape=partialRectangle;overflow=hidden;connectable=0;fillColor=none;top=0;left=0;bottom=0;right=0;align=left;spacingLeft=6;" vertex="1" parent="WxYsgp-KZV7bpgHmbpId-172">
          <mxGeometry x="30" width="240" height="25" as="geometry">
            <mxRectangle width="240" height="25" as="alternateBounds" />
          </mxGeometry>
        </mxCell>
        <mxCell id="WxYsgp-KZV7bpgHmbpId-162" value="" style="edgeStyle=entityRelationEdgeStyle;fontSize=12;html=1;endArrow=ERzeroToMany;startArrow=ERmandOne;rounded=0;exitX=1;exitY=0.5;exitDx=0;exitDy=0;entryX=0;entryY=0.5;entryDx=0;entryDy=0;" edge="1" parent="1" source="WxYsgp-KZV7bpgHmbpId-78" target="WxYsgp-KZV7bpgHmbpId-172">
          <mxGeometry width="100" height="100" relative="1" as="geometry">
            <mxPoint x="80" y="485" as="sourcePoint" />
            <mxPoint x="480" y="300" as="targetPoint" />
          </mxGeometry>
        </mxCell>
        <mxCell id="WxYsgp-KZV7bpgHmbpId-184" value="" style="edgeStyle=entityRelationEdgeStyle;fontSize=12;html=1;endArrow=ERmandOne;startArrow=ERmandOne;rounded=0;exitX=1;exitY=0.5;exitDx=0;exitDy=0;entryX=0;entryY=0.5;entryDx=0;entryDy=0;" edge="1" parent="1" source="C-vyLk0tnHw3VtMMgP7b-24" target="WxYsgp-KZV7bpgHmbpId-180">
          <mxGeometry width="100" height="100" relative="1" as="geometry">
            <mxPoint x="80" y="340" as="sourcePoint" />
            <mxPoint x="180" y="240" as="targetPoint" />
          </mxGeometry>
        </mxCell>
        <mxCell id="WxYsgp-KZV7bpgHmbpId-188" value="" style="edgeStyle=entityRelationEdgeStyle;fontSize=12;html=1;endArrow=ERzeroToMany;startArrow=ERmandOne;rounded=0;exitX=0;exitY=0.5;exitDx=0;exitDy=0;entryX=1;entryY=0.5;entryDx=0;entryDy=0;" edge="1" parent="1" source="WxYsgp-KZV7bpgHmbpId-78" target="WxYsgp-KZV7bpgHmbpId-185">
          <mxGeometry width="100" height="100" relative="1" as="geometry">
            <mxPoint y="80" as="sourcePoint" />
            <mxPoint x="60" y="270" as="targetPoint" />
          </mxGeometry>
        </mxCell>
        <mxCell id="WxYsgp-KZV7bpgHmbpId-189" value="Discount" style="shape=table;startSize=30;container=1;collapsible=1;childLayout=tableLayout;fixedRows=1;rowLines=0;fontStyle=1;align=center;resizeLast=1;" vertex="1" parent="1">
          <mxGeometry x="90" y="640" width="270" height="165" as="geometry" />
        </mxCell>
        <mxCell id="WxYsgp-KZV7bpgHmbpId-190" value="" style="shape=partialRectangle;collapsible=0;dropTarget=0;pointerEvents=0;fillColor=none;points=[[0,0.5],[1,0.5]];portConstraint=eastwest;top=0;left=0;right=0;bottom=1;" vertex="1" parent="WxYsgp-KZV7bpgHmbpId-189">
          <mxGeometry y="30" width="270" height="40" as="geometry" />
        </mxCell>
        <mxCell id="WxYsgp-KZV7bpgHmbpId-191" value="PK" style="shape=partialRectangle;overflow=hidden;connectable=0;fillColor=none;top=0;left=0;bottom=0;right=0;fontStyle=1;" vertex="1" parent="WxYsgp-KZV7bpgHmbpId-190">
          <mxGeometry width="30" height="40" as="geometry">
            <mxRectangle width="30" height="40" as="alternateBounds" />
          </mxGeometry>
        </mxCell>
        <mxCell id="WxYsgp-KZV7bpgHmbpId-192" value="discount_id int NOT NULL " style="shape=partialRectangle;overflow=hidden;connectable=0;fillColor=none;top=0;left=0;bottom=0;right=0;align=left;spacingLeft=6;fontStyle=0;" vertex="1" parent="WxYsgp-KZV7bpgHmbpId-190">
          <mxGeometry x="30" width="240" height="40" as="geometry">
            <mxRectangle width="240" height="40" as="alternateBounds" />
          </mxGeometry>
        </mxCell>
        <mxCell id="WxYsgp-KZV7bpgHmbpId-193" value="" style="shape=partialRectangle;collapsible=0;dropTarget=0;pointerEvents=0;fillColor=none;points=[[0,0.5],[1,0.5]];portConstraint=eastwest;top=0;left=0;right=0;bottom=0;" vertex="1" parent="WxYsgp-KZV7bpgHmbpId-189">
          <mxGeometry y="70" width="270" height="25" as="geometry" />
        </mxCell>
        <mxCell id="WxYsgp-KZV7bpgHmbpId-194" value="" style="shape=partialRectangle;overflow=hidden;connectable=0;fillColor=none;top=0;left=0;bottom=0;right=0;" vertex="1" parent="WxYsgp-KZV7bpgHmbpId-193">
          <mxGeometry width="30" height="25" as="geometry">
            <mxRectangle width="30" height="25" as="alternateBounds" />
          </mxGeometry>
        </mxCell>
        <mxCell id="WxYsgp-KZV7bpgHmbpId-195" value="discount_value Double NOT NULL" style="shape=partialRectangle;overflow=hidden;connectable=0;fillColor=none;top=0;left=0;bottom=0;right=0;align=left;spacingLeft=6;" vertex="1" parent="WxYsgp-KZV7bpgHmbpId-193">
          <mxGeometry x="30" width="240" height="25" as="geometry">
            <mxRectangle width="240" height="25" as="alternateBounds" />
          </mxGeometry>
        </mxCell>
        <mxCell id="WxYsgp-KZV7bpgHmbpId-221" value="" style="shape=partialRectangle;collapsible=0;dropTarget=0;pointerEvents=0;fillColor=none;points=[[0,0.5],[1,0.5]];portConstraint=eastwest;top=0;left=0;right=0;bottom=0;" vertex="1" parent="WxYsgp-KZV7bpgHmbpId-189">
          <mxGeometry y="95" width="270" height="25" as="geometry" />
        </mxCell>
        <mxCell id="WxYsgp-KZV7bpgHmbpId-222" value="" style="shape=partialRectangle;overflow=hidden;connectable=0;fillColor=none;top=0;left=0;bottom=0;right=0;" vertex="1" parent="WxYsgp-KZV7bpgHmbpId-221">
          <mxGeometry width="30" height="25" as="geometry">
            <mxRectangle width="30" height="25" as="alternateBounds" />
          </mxGeometry>
        </mxCell>
        <mxCell id="WxYsgp-KZV7bpgHmbpId-223" value="start-time TIMESTAMP NOT NULL" style="shape=partialRectangle;overflow=hidden;connectable=0;fillColor=none;top=0;left=0;bottom=0;right=0;align=left;spacingLeft=6;" vertex="1" parent="WxYsgp-KZV7bpgHmbpId-221">
          <mxGeometry x="30" width="240" height="25" as="geometry">
            <mxRectangle width="240" height="25" as="alternateBounds" />
          </mxGeometry>
        </mxCell>
        <mxCell id="WxYsgp-KZV7bpgHmbpId-224" value="" style="shape=partialRectangle;collapsible=0;dropTarget=0;pointerEvents=0;fillColor=none;points=[[0,0.5],[1,0.5]];portConstraint=eastwest;top=0;left=0;right=0;bottom=0;" vertex="1" parent="WxYsgp-KZV7bpgHmbpId-189">
          <mxGeometry y="120" width="270" height="25" as="geometry" />
        </mxCell>
        <mxCell id="WxYsgp-KZV7bpgHmbpId-225" value="" style="shape=partialRectangle;overflow=hidden;connectable=0;fillColor=none;top=0;left=0;bottom=0;right=0;" vertex="1" parent="WxYsgp-KZV7bpgHmbpId-224">
          <mxGeometry width="30" height="25" as="geometry">
            <mxRectangle width="30" height="25" as="alternateBounds" />
          </mxGeometry>
        </mxCell>
        <mxCell id="WxYsgp-KZV7bpgHmbpId-226" value="end-time TIMESTAMP NOT NULL" style="shape=partialRectangle;overflow=hidden;connectable=0;fillColor=none;top=0;left=0;bottom=0;right=0;align=left;spacingLeft=6;" vertex="1" parent="WxYsgp-KZV7bpgHmbpId-224">
          <mxGeometry x="30" width="240" height="25" as="geometry">
            <mxRectangle width="240" height="25" as="alternateBounds" />
          </mxGeometry>
        </mxCell>
        <mxCell id="WxYsgp-KZV7bpgHmbpId-196" value="" style="shape=partialRectangle;collapsible=0;dropTarget=0;pointerEvents=0;fillColor=none;points=[[0,0.5],[1,0.5]];portConstraint=eastwest;top=0;left=0;right=0;bottom=0;" vertex="1" parent="WxYsgp-KZV7bpgHmbpId-189">
          <mxGeometry y="145" width="270" height="20" as="geometry" />
        </mxCell>
        <mxCell id="WxYsgp-KZV7bpgHmbpId-197" value="" style="shape=partialRectangle;overflow=hidden;connectable=0;fillColor=none;top=0;left=0;bottom=0;right=0;" vertex="1" parent="WxYsgp-KZV7bpgHmbpId-196">
          <mxGeometry width="30" height="20" as="geometry">
            <mxRectangle width="30" height="20" as="alternateBounds" />
          </mxGeometry>
        </mxCell>
        <mxCell id="WxYsgp-KZV7bpgHmbpId-198" value="" style="shape=partialRectangle;overflow=hidden;connectable=0;fillColor=none;top=0;left=0;bottom=0;right=0;align=left;spacingLeft=6;" vertex="1" parent="WxYsgp-KZV7bpgHmbpId-196">
          <mxGeometry x="30" width="240" height="20" as="geometry">
            <mxRectangle width="240" height="20" as="alternateBounds" />
          </mxGeometry>
        </mxCell>
        <mxCell id="WxYsgp-KZV7bpgHmbpId-208" value="Review" style="shape=table;startSize=30;container=1;collapsible=1;childLayout=tableLayout;fixedRows=1;rowLines=0;fontStyle=1;align=center;resizeLast=1;" vertex="1" parent="1">
          <mxGeometry x="330" y="870" width="270" height="135" as="geometry" />
        </mxCell>
        <mxCell id="WxYsgp-KZV7bpgHmbpId-209" value="" style="shape=partialRectangle;collapsible=0;dropTarget=0;pointerEvents=0;fillColor=none;points=[[0,0.5],[1,0.5]];portConstraint=eastwest;top=0;left=0;right=0;bottom=1;" vertex="1" parent="WxYsgp-KZV7bpgHmbpId-208">
          <mxGeometry y="30" width="270" height="40" as="geometry" />
        </mxCell>
        <mxCell id="WxYsgp-KZV7bpgHmbpId-210" value="PK" style="shape=partialRectangle;overflow=hidden;connectable=0;fillColor=none;top=0;left=0;bottom=0;right=0;fontStyle=1;" vertex="1" parent="WxYsgp-KZV7bpgHmbpId-209">
          <mxGeometry width="30" height="40" as="geometry">
            <mxRectangle width="30" height="40" as="alternateBounds" />
          </mxGeometry>
        </mxCell>
        <mxCell id="WxYsgp-KZV7bpgHmbpId-211" value="review_id int NOT NULL " style="shape=partialRectangle;overflow=hidden;connectable=0;fillColor=none;top=0;left=0;bottom=0;right=0;align=left;spacingLeft=6;fontStyle=0;" vertex="1" parent="WxYsgp-KZV7bpgHmbpId-209">
          <mxGeometry x="30" width="240" height="40" as="geometry">
            <mxRectangle width="240" height="40" as="alternateBounds" />
          </mxGeometry>
        </mxCell>
        <mxCell id="WxYsgp-KZV7bpgHmbpId-212" value="" style="shape=partialRectangle;collapsible=0;dropTarget=0;pointerEvents=0;fillColor=none;points=[[0,0.5],[1,0.5]];portConstraint=eastwest;top=0;left=0;right=0;bottom=0;" vertex="1" parent="WxYsgp-KZV7bpgHmbpId-208">
          <mxGeometry y="70" width="270" height="25" as="geometry" />
        </mxCell>
        <mxCell id="WxYsgp-KZV7bpgHmbpId-213" value="" style="shape=partialRectangle;overflow=hidden;connectable=0;fillColor=none;top=0;left=0;bottom=0;right=0;" vertex="1" parent="WxYsgp-KZV7bpgHmbpId-212">
          <mxGeometry width="30" height="25" as="geometry">
            <mxRectangle width="30" height="25" as="alternateBounds" />
          </mxGeometry>
        </mxCell>
        <mxCell id="WxYsgp-KZV7bpgHmbpId-214" value="" style="shape=partialRectangle;overflow=hidden;connectable=0;fillColor=none;top=0;left=0;bottom=0;right=0;align=left;spacingLeft=6;" vertex="1" parent="WxYsgp-KZV7bpgHmbpId-212">
          <mxGeometry x="30" width="240" height="25" as="geometry">
            <mxRectangle width="240" height="25" as="alternateBounds" />
          </mxGeometry>
        </mxCell>
        <mxCell id="WxYsgp-KZV7bpgHmbpId-215" value="" style="shape=partialRectangle;collapsible=0;dropTarget=0;pointerEvents=0;fillColor=none;points=[[0,0.5],[1,0.5]];portConstraint=eastwest;top=0;left=0;right=0;bottom=0;" vertex="1" parent="WxYsgp-KZV7bpgHmbpId-208">
          <mxGeometry y="95" width="270" height="20" as="geometry" />
        </mxCell>
        <mxCell id="WxYsgp-KZV7bpgHmbpId-216" value="" style="shape=partialRectangle;overflow=hidden;connectable=0;fillColor=none;top=0;left=0;bottom=0;right=0;" vertex="1" parent="WxYsgp-KZV7bpgHmbpId-215">
          <mxGeometry width="30" height="20" as="geometry">
            <mxRectangle width="30" height="20" as="alternateBounds" />
          </mxGeometry>
        </mxCell>
        <mxCell id="WxYsgp-KZV7bpgHmbpId-217" value="" style="shape=partialRectangle;overflow=hidden;connectable=0;fillColor=none;top=0;left=0;bottom=0;right=0;align=left;spacingLeft=6;" vertex="1" parent="WxYsgp-KZV7bpgHmbpId-215">
          <mxGeometry x="30" width="240" height="20" as="geometry">
            <mxRectangle width="240" height="20" as="alternateBounds" />
          </mxGeometry>
        </mxCell>
        <mxCell id="WxYsgp-KZV7bpgHmbpId-218" value="" style="shape=partialRectangle;collapsible=0;dropTarget=0;pointerEvents=0;fillColor=none;points=[[0,0.5],[1,0.5]];portConstraint=eastwest;top=0;left=0;right=0;bottom=0;" vertex="1" parent="WxYsgp-KZV7bpgHmbpId-208">
          <mxGeometry y="115" width="270" height="20" as="geometry" />
        </mxCell>
        <mxCell id="WxYsgp-KZV7bpgHmbpId-219" value="" style="shape=partialRectangle;overflow=hidden;connectable=0;fillColor=none;top=0;left=0;bottom=0;right=0;" vertex="1" parent="WxYsgp-KZV7bpgHmbpId-218">
          <mxGeometry width="30" height="20" as="geometry">
            <mxRectangle width="30" height="20" as="alternateBounds" />
          </mxGeometry>
        </mxCell>
        <mxCell id="WxYsgp-KZV7bpgHmbpId-220" value="" style="shape=partialRectangle;overflow=hidden;connectable=0;fillColor=none;top=0;left=0;bottom=0;right=0;align=left;spacingLeft=6;" vertex="1" parent="WxYsgp-KZV7bpgHmbpId-218">
          <mxGeometry x="30" width="240" height="20" as="geometry">
            <mxRectangle width="240" height="20" as="alternateBounds" />
          </mxGeometry>
        </mxCell>
        <mxCell id="WxYsgp-KZV7bpgHmbpId-227" value="" style="edgeStyle=entityRelationEdgeStyle;fontSize=12;html=1;endArrow=ERzeroToMany;startArrow=ERmandOne;rounded=0;exitX=0;exitY=0.5;exitDx=0;exitDy=0;" edge="1" parent="1" source="WxYsgp-KZV7bpgHmbpId-190" target="WxYsgp-KZV7bpgHmbpId-228">
          <mxGeometry width="100" height="100" relative="1" as="geometry">
            <mxPoint x="80" y="630" as="sourcePoint" />
            <mxPoint x="90" y="790" as="targetPoint" />
          </mxGeometry>
        </mxCell>
        <mxCell id="WxYsgp-KZV7bpgHmbpId-231" value="" style="swimlane;startSize=0;" vertex="1" parent="1">
          <mxGeometry x="-590" y="50" width="1400" height="800" as="geometry" />
        </mxCell>
        <mxCell id="WxYsgp-KZV7bpgHmbpId-232" value="&lt;span style=&quot;font-weight: normal;&quot;&gt;Do review cần có user nên ở đây mình sẽ fix cứng review (rating, reviewed)&lt;/span&gt;" style="text;strokeColor=none;fillColor=none;html=1;fontSize=24;fontStyle=1;verticalAlign=middle;align=center;" vertex="1" parent="WxYsgp-KZV7bpgHmbpId-231">
          <mxGeometry x="1015" y="960" width="100" height="40" as="geometry" />
        </mxCell>
        <mxCell id="WxYsgp-KZV7bpgHmbpId-233" style="edgeStyle=orthogonalEdgeStyle;rounded=0;orthogonalLoop=1;jettySize=auto;html=1;exitX=0.5;exitY=1;exitDx=0;exitDy=0;" edge="1" parent="1" source="WxYsgp-KZV7bpgHmbpId-231" target="WxYsgp-KZV7bpgHmbpId-231">
          <mxGeometry relative="1" as="geometry" />
        </mxCell>
      </root>
    </mxGraphModel>
  </diagram>
</mxfile>
